<mxfile host="app.diagrams.net" modified="2024-09-17T21:05:55.372Z" agent="Mozilla/5.0 (Windows NT 10.0; Win64; x64) AppleWebKit/537.36 (KHTML, like Gecko) Chrome/128.0.0.0 Safari/537.36" etag="_SQ09-ePj4S_gvLevIvU" version="24.4.8" type="github">
  <diagram name="Page-1" id="v5uKOIcdS_1mie78dcBx">
    <mxGraphModel dx="1120" dy="478" grid="1" gridSize="10" guides="1" tooltips="1" connect="1" arrows="1" fold="1" page="1" pageScale="1" pageWidth="850" pageHeight="1100" math="0" shadow="0">
      <root>
        <mxCell id="0" />
        <mxCell id="1" parent="0" />
        <mxCell id="T7A3vPWm0_8X9iySJhkO-1" style="edgeStyle=orthogonalEdgeStyle;rounded=0;orthogonalLoop=1;jettySize=auto;html=1;exitX=1;exitY=0.3333333333333333;exitDx=0;exitDy=0;exitPerimeter=0;" edge="1" parent="1" source="T7A3vPWm0_8X9iySJhkO-2">
          <mxGeometry relative="1" as="geometry">
            <mxPoint x="210" y="120" as="targetPoint" />
          </mxGeometry>
        </mxCell>
        <mxCell id="T7A3vPWm0_8X9iySJhkO-2" value="Actor" style="shape=umlActor;verticalLabelPosition=bottom;verticalAlign=top;html=1;outlineConnect=0;" vertex="1" parent="1">
          <mxGeometry x="70" y="100" width="40" height="60" as="geometry" />
        </mxCell>
        <mxCell id="T7A3vPWm0_8X9iySJhkO-3" style="edgeStyle=orthogonalEdgeStyle;rounded=0;orthogonalLoop=1;jettySize=auto;html=1;exitX=0.5;exitY=1;exitDx=0;exitDy=0;" edge="1" parent="1" source="T7A3vPWm0_8X9iySJhkO-4">
          <mxGeometry relative="1" as="geometry">
            <mxPoint x="1150" y="610" as="targetPoint" />
          </mxGeometry>
        </mxCell>
        <mxCell id="T7A3vPWm0_8X9iySJhkO-4" value="Skill Assessment" style="swimlane;whiteSpace=wrap;html=1;" vertex="1" parent="1">
          <mxGeometry x="940" y="330" width="230" height="200" as="geometry" />
        </mxCell>
        <mxCell id="T7A3vPWm0_8X9iySJhkO-5" style="edgeStyle=orthogonalEdgeStyle;rounded=0;orthogonalLoop=1;jettySize=auto;html=1;exitX=0.5;exitY=1;exitDx=0;exitDy=0;entryX=0.5;entryY=0;entryDx=0;entryDy=0;" edge="1" parent="T7A3vPWm0_8X9iySJhkO-4" source="T7A3vPWm0_8X9iySJhkO-6" target="T7A3vPWm0_8X9iySJhkO-9">
          <mxGeometry relative="1" as="geometry" />
        </mxCell>
        <mxCell id="T7A3vPWm0_8X9iySJhkO-6" value="Assessment tools&amp;nbsp;" style="rounded=1;whiteSpace=wrap;html=1;" vertex="1" parent="T7A3vPWm0_8X9iySJhkO-4">
          <mxGeometry x="30" y="30" width="160" height="30" as="geometry" />
        </mxCell>
        <mxCell id="T7A3vPWm0_8X9iySJhkO-7" style="edgeStyle=orthogonalEdgeStyle;rounded=0;orthogonalLoop=1;jettySize=auto;html=1;exitX=0.5;exitY=1;exitDx=0;exitDy=0;entryX=0.5;entryY=0;entryDx=0;entryDy=0;" edge="1" parent="T7A3vPWm0_8X9iySJhkO-4" source="T7A3vPWm0_8X9iySJhkO-9">
          <mxGeometry relative="1" as="geometry">
            <mxPoint x="110" y="118" as="targetPoint" />
          </mxGeometry>
        </mxCell>
        <mxCell id="T7A3vPWm0_8X9iySJhkO-8" style="edgeStyle=orthogonalEdgeStyle;rounded=0;orthogonalLoop=1;jettySize=auto;html=1;exitX=0.5;exitY=1;exitDx=0;exitDy=0;entryX=0.5;entryY=0;entryDx=0;entryDy=0;" edge="1" parent="T7A3vPWm0_8X9iySJhkO-4" source="T7A3vPWm0_8X9iySJhkO-9" target="T7A3vPWm0_8X9iySJhkO-10">
          <mxGeometry relative="1" as="geometry" />
        </mxCell>
        <mxCell id="T7A3vPWm0_8X9iySJhkO-9" value="Results and recommendations for courses" style="rounded=1;whiteSpace=wrap;html=1;" vertex="1" parent="T7A3vPWm0_8X9iySJhkO-4">
          <mxGeometry x="30" y="74" width="160" height="66" as="geometry" />
        </mxCell>
        <mxCell id="T7A3vPWm0_8X9iySJhkO-10" value="Progress tracking" style="rounded=1;whiteSpace=wrap;html=1;" vertex="1" parent="T7A3vPWm0_8X9iySJhkO-4">
          <mxGeometry x="30" y="160" width="160" height="30" as="geometry" />
        </mxCell>
        <mxCell id="T7A3vPWm0_8X9iySJhkO-11" style="edgeStyle=orthogonalEdgeStyle;rounded=0;orthogonalLoop=1;jettySize=auto;html=1;exitX=0.5;exitY=1;exitDx=0;exitDy=0;" edge="1" parent="1" source="T7A3vPWm0_8X9iySJhkO-12">
          <mxGeometry relative="1" as="geometry">
            <mxPoint x="590" y="610" as="targetPoint" />
          </mxGeometry>
        </mxCell>
        <mxCell id="T7A3vPWm0_8X9iySJhkO-12" value="Profile Management" style="swimlane;whiteSpace=wrap;html=1;" vertex="1" parent="1">
          <mxGeometry x="100" y="330" width="230" height="200" as="geometry" />
        </mxCell>
        <mxCell id="T7A3vPWm0_8X9iySJhkO-13" style="edgeStyle=orthogonalEdgeStyle;rounded=0;orthogonalLoop=1;jettySize=auto;html=1;exitX=0.5;exitY=1;exitDx=0;exitDy=0;entryX=0.5;entryY=0;entryDx=0;entryDy=0;" edge="1" parent="T7A3vPWm0_8X9iySJhkO-12" source="T7A3vPWm0_8X9iySJhkO-14" target="T7A3vPWm0_8X9iySJhkO-16">
          <mxGeometry relative="1" as="geometry" />
        </mxCell>
        <mxCell id="T7A3vPWm0_8X9iySJhkO-14" value="Profile creation and update" style="rounded=1;whiteSpace=wrap;html=1;" vertex="1" parent="T7A3vPWm0_8X9iySJhkO-12">
          <mxGeometry x="30" y="30" width="160" height="30" as="geometry" />
        </mxCell>
        <mxCell id="T7A3vPWm0_8X9iySJhkO-15" style="edgeStyle=orthogonalEdgeStyle;rounded=0;orthogonalLoop=1;jettySize=auto;html=1;exitX=0.5;exitY=1;exitDx=0;exitDy=0;entryX=0.5;entryY=0;entryDx=0;entryDy=0;" edge="1" parent="T7A3vPWm0_8X9iySJhkO-12" source="T7A3vPWm0_8X9iySJhkO-16" target="T7A3vPWm0_8X9iySJhkO-18">
          <mxGeometry relative="1" as="geometry" />
        </mxCell>
        <mxCell id="T7A3vPWm0_8X9iySJhkO-16" value="Skill input and rating" style="rounded=1;whiteSpace=wrap;html=1;" vertex="1" parent="T7A3vPWm0_8X9iySJhkO-12">
          <mxGeometry x="30" y="74" width="160" height="30" as="geometry" />
        </mxCell>
        <mxCell id="T7A3vPWm0_8X9iySJhkO-17" style="edgeStyle=orthogonalEdgeStyle;rounded=0;orthogonalLoop=1;jettySize=auto;html=1;exitX=0.5;exitY=1;exitDx=0;exitDy=0;entryX=0.5;entryY=0;entryDx=0;entryDy=0;" edge="1" parent="T7A3vPWm0_8X9iySJhkO-12" source="T7A3vPWm0_8X9iySJhkO-18" target="T7A3vPWm0_8X9iySJhkO-19">
          <mxGeometry relative="1" as="geometry" />
        </mxCell>
        <mxCell id="T7A3vPWm0_8X9iySJhkO-18" value="Resume/document upload" style="rounded=1;whiteSpace=wrap;html=1;" vertex="1" parent="T7A3vPWm0_8X9iySJhkO-12">
          <mxGeometry x="30" y="118" width="160" height="30" as="geometry" />
        </mxCell>
        <mxCell id="T7A3vPWm0_8X9iySJhkO-19" value="Dynamic profile updating" style="rounded=1;whiteSpace=wrap;html=1;" vertex="1" parent="T7A3vPWm0_8X9iySJhkO-12">
          <mxGeometry x="30" y="160" width="160" height="30" as="geometry" />
        </mxCell>
        <mxCell id="T7A3vPWm0_8X9iySJhkO-20" style="edgeStyle=orthogonalEdgeStyle;rounded=0;orthogonalLoop=1;jettySize=auto;html=1;exitX=0.5;exitY=1;exitDx=0;exitDy=0;" edge="1" parent="1" source="T7A3vPWm0_8X9iySJhkO-21">
          <mxGeometry relative="1" as="geometry">
            <mxPoint x="1380" y="610" as="targetPoint" />
          </mxGeometry>
        </mxCell>
        <mxCell id="T7A3vPWm0_8X9iySJhkO-21" value="Employer Dashboard" style="swimlane;whiteSpace=wrap;html=1;" vertex="1" parent="1">
          <mxGeometry x="1200" y="330" width="230" height="200" as="geometry" />
        </mxCell>
        <mxCell id="T7A3vPWm0_8X9iySJhkO-22" style="edgeStyle=orthogonalEdgeStyle;rounded=0;orthogonalLoop=1;jettySize=auto;html=1;exitX=0.5;exitY=1;exitDx=0;exitDy=0;entryX=0.5;entryY=0;entryDx=0;entryDy=0;" edge="1" parent="T7A3vPWm0_8X9iySJhkO-21" source="T7A3vPWm0_8X9iySJhkO-23" target="T7A3vPWm0_8X9iySJhkO-25">
          <mxGeometry relative="1" as="geometry" />
        </mxCell>
        <mxCell id="T7A3vPWm0_8X9iySJhkO-23" value="Job posting" style="rounded=1;whiteSpace=wrap;html=1;" vertex="1" parent="T7A3vPWm0_8X9iySJhkO-21">
          <mxGeometry x="30" y="30" width="160" height="30" as="geometry" />
        </mxCell>
        <mxCell id="T7A3vPWm0_8X9iySJhkO-24" style="edgeStyle=orthogonalEdgeStyle;rounded=0;orthogonalLoop=1;jettySize=auto;html=1;exitX=0.5;exitY=1;exitDx=0;exitDy=0;entryX=0.5;entryY=0;entryDx=0;entryDy=0;" edge="1" parent="T7A3vPWm0_8X9iySJhkO-21" source="T7A3vPWm0_8X9iySJhkO-25" target="T7A3vPWm0_8X9iySJhkO-27">
          <mxGeometry relative="1" as="geometry" />
        </mxCell>
        <mxCell id="T7A3vPWm0_8X9iySJhkO-25" value="Candidate search/filtering" style="rounded=1;whiteSpace=wrap;html=1;" vertex="1" parent="T7A3vPWm0_8X9iySJhkO-21">
          <mxGeometry x="30" y="74" width="160" height="30" as="geometry" />
        </mxCell>
        <mxCell id="T7A3vPWm0_8X9iySJhkO-26" style="edgeStyle=orthogonalEdgeStyle;rounded=0;orthogonalLoop=1;jettySize=auto;html=1;exitX=0.5;exitY=1;exitDx=0;exitDy=0;entryX=0.5;entryY=0;entryDx=0;entryDy=0;" edge="1" parent="T7A3vPWm0_8X9iySJhkO-21" source="T7A3vPWm0_8X9iySJhkO-27" target="T7A3vPWm0_8X9iySJhkO-28">
          <mxGeometry relative="1" as="geometry" />
        </mxCell>
        <mxCell id="T7A3vPWm0_8X9iySJhkO-27" value="Application management" style="rounded=1;whiteSpace=wrap;html=1;" vertex="1" parent="T7A3vPWm0_8X9iySJhkO-21">
          <mxGeometry x="30" y="118" width="160" height="30" as="geometry" />
        </mxCell>
        <mxCell id="T7A3vPWm0_8X9iySJhkO-28" value="Analytics/reporting" style="rounded=1;whiteSpace=wrap;html=1;" vertex="1" parent="T7A3vPWm0_8X9iySJhkO-21">
          <mxGeometry x="30" y="160" width="160" height="30" as="geometry" />
        </mxCell>
        <mxCell id="T7A3vPWm0_8X9iySJhkO-29" style="edgeStyle=orthogonalEdgeStyle;rounded=0;orthogonalLoop=1;jettySize=auto;html=1;exitX=0.5;exitY=1;exitDx=0;exitDy=0;" edge="1" parent="1" source="T7A3vPWm0_8X9iySJhkO-30">
          <mxGeometry relative="1" as="geometry">
            <mxPoint x="990" y="610" as="targetPoint" />
          </mxGeometry>
        </mxCell>
        <mxCell id="T7A3vPWm0_8X9iySJhkO-30" value="Job Matching and Application" style="swimlane;whiteSpace=wrap;html=1;" vertex="1" parent="1">
          <mxGeometry x="660" y="330" width="230" height="200" as="geometry" />
        </mxCell>
        <mxCell id="T7A3vPWm0_8X9iySJhkO-31" style="edgeStyle=orthogonalEdgeStyle;rounded=0;orthogonalLoop=1;jettySize=auto;html=1;exitX=0.5;exitY=1;exitDx=0;exitDy=0;entryX=0.5;entryY=0;entryDx=0;entryDy=0;" edge="1" parent="T7A3vPWm0_8X9iySJhkO-30" source="T7A3vPWm0_8X9iySJhkO-32" target="T7A3vPWm0_8X9iySJhkO-34">
          <mxGeometry relative="1" as="geometry" />
        </mxCell>
        <mxCell id="T7A3vPWm0_8X9iySJhkO-32" value="Smart job matching algorithm" style="rounded=1;whiteSpace=wrap;html=1;" vertex="1" parent="T7A3vPWm0_8X9iySJhkO-30">
          <mxGeometry x="30" y="30" width="160" height="30" as="geometry" />
        </mxCell>
        <mxCell id="T7A3vPWm0_8X9iySJhkO-33" style="edgeStyle=orthogonalEdgeStyle;rounded=0;orthogonalLoop=1;jettySize=auto;html=1;exitX=0.5;exitY=1;exitDx=0;exitDy=0;entryX=0.5;entryY=0;entryDx=0;entryDy=0;" edge="1" parent="T7A3vPWm0_8X9iySJhkO-30" source="T7A3vPWm0_8X9iySJhkO-34" target="T7A3vPWm0_8X9iySJhkO-35">
          <mxGeometry relative="1" as="geometry" />
        </mxCell>
        <mxCell id="T7A3vPWm0_8X9iySJhkO-34" value="Job search by category/company" style="rounded=1;whiteSpace=wrap;html=1;" vertex="1" parent="T7A3vPWm0_8X9iySJhkO-30">
          <mxGeometry x="30" y="74" width="160" height="30" as="geometry" />
        </mxCell>
        <mxCell id="T7A3vPWm0_8X9iySJhkO-35" value="Job application process" style="rounded=1;whiteSpace=wrap;html=1;" vertex="1" parent="T7A3vPWm0_8X9iySJhkO-30">
          <mxGeometry x="30" y="118" width="160" height="52" as="geometry" />
        </mxCell>
        <mxCell id="T7A3vPWm0_8X9iySJhkO-36" style="edgeStyle=orthogonalEdgeStyle;rounded=0;orthogonalLoop=1;jettySize=auto;html=1;exitX=1;exitY=0.5;exitDx=0;exitDy=0;entryX=0;entryY=0.5;entryDx=0;entryDy=0;" edge="1" parent="1" source="T7A3vPWm0_8X9iySJhkO-37" target="T7A3vPWm0_8X9iySJhkO-62">
          <mxGeometry relative="1" as="geometry" />
        </mxCell>
        <mxCell id="T7A3vPWm0_8X9iySJhkO-37" value="&lt;span style=&quot;font-weight: 400;&quot;&gt;User Registration and Login&lt;/span&gt;" style="swimlane;whiteSpace=wrap;html=1;" vertex="1" parent="1">
          <mxGeometry x="210" y="20" width="230" height="200" as="geometry" />
        </mxCell>
        <mxCell id="T7A3vPWm0_8X9iySJhkO-38" style="edgeStyle=orthogonalEdgeStyle;rounded=0;orthogonalLoop=1;jettySize=auto;html=1;exitX=0.5;exitY=1;exitDx=0;exitDy=0;entryX=0.5;entryY=0;entryDx=0;entryDy=0;" edge="1" parent="T7A3vPWm0_8X9iySJhkO-37" source="T7A3vPWm0_8X9iySJhkO-39" target="T7A3vPWm0_8X9iySJhkO-41">
          <mxGeometry relative="1" as="geometry" />
        </mxCell>
        <mxCell id="T7A3vPWm0_8X9iySJhkO-39" value="User registration module" style="rounded=1;whiteSpace=wrap;html=1;" vertex="1" parent="T7A3vPWm0_8X9iySJhkO-37">
          <mxGeometry x="30" y="30" width="160" height="30" as="geometry" />
        </mxCell>
        <mxCell id="T7A3vPWm0_8X9iySJhkO-40" style="edgeStyle=orthogonalEdgeStyle;rounded=0;orthogonalLoop=1;jettySize=auto;html=1;exitX=0.5;exitY=1;exitDx=0;exitDy=0;entryX=0.5;entryY=0;entryDx=0;entryDy=0;" edge="1" parent="T7A3vPWm0_8X9iySJhkO-37" source="T7A3vPWm0_8X9iySJhkO-41" target="T7A3vPWm0_8X9iySJhkO-43">
          <mxGeometry relative="1" as="geometry" />
        </mxCell>
        <mxCell id="T7A3vPWm0_8X9iySJhkO-41" value="Login/Authentication module" style="rounded=1;whiteSpace=wrap;html=1;" vertex="1" parent="T7A3vPWm0_8X9iySJhkO-37">
          <mxGeometry x="30" y="74" width="160" height="30" as="geometry" />
        </mxCell>
        <mxCell id="T7A3vPWm0_8X9iySJhkO-42" style="edgeStyle=orthogonalEdgeStyle;rounded=0;orthogonalLoop=1;jettySize=auto;html=1;exitX=0.5;exitY=1;exitDx=0;exitDy=0;entryX=0.5;entryY=0;entryDx=0;entryDy=0;" edge="1" parent="T7A3vPWm0_8X9iySJhkO-37" source="T7A3vPWm0_8X9iySJhkO-43" target="T7A3vPWm0_8X9iySJhkO-44">
          <mxGeometry relative="1" as="geometry" />
        </mxCell>
        <mxCell id="T7A3vPWm0_8X9iySJhkO-43" value="Password recovery process" style="rounded=1;whiteSpace=wrap;html=1;" vertex="1" parent="T7A3vPWm0_8X9iySJhkO-37">
          <mxGeometry x="30" y="118" width="160" height="30" as="geometry" />
        </mxCell>
        <mxCell id="T7A3vPWm0_8X9iySJhkO-44" value="Admin management of access/permissions" style="rounded=1;whiteSpace=wrap;html=1;" vertex="1" parent="T7A3vPWm0_8X9iySJhkO-37">
          <mxGeometry x="30" y="160" width="160" height="30" as="geometry" />
        </mxCell>
        <mxCell id="T7A3vPWm0_8X9iySJhkO-45" style="edgeStyle=orthogonalEdgeStyle;rounded=0;orthogonalLoop=1;jettySize=auto;html=1;exitX=0.5;exitY=1;exitDx=0;exitDy=0;" edge="1" parent="1" source="T7A3vPWm0_8X9iySJhkO-46">
          <mxGeometry relative="1" as="geometry">
            <mxPoint x="730" y="610" as="targetPoint" />
          </mxGeometry>
        </mxCell>
        <mxCell id="T7A3vPWm0_8X9iySJhkO-46" value="Course Management" style="swimlane;whiteSpace=wrap;html=1;" vertex="1" parent="1">
          <mxGeometry x="400" y="330" width="230" height="200" as="geometry" />
        </mxCell>
        <mxCell id="T7A3vPWm0_8X9iySJhkO-47" style="edgeStyle=orthogonalEdgeStyle;rounded=0;orthogonalLoop=1;jettySize=auto;html=1;exitX=0.5;exitY=1;exitDx=0;exitDy=0;entryX=0.5;entryY=0;entryDx=0;entryDy=0;" edge="1" parent="T7A3vPWm0_8X9iySJhkO-46" source="T7A3vPWm0_8X9iySJhkO-48" target="T7A3vPWm0_8X9iySJhkO-51">
          <mxGeometry relative="1" as="geometry" />
        </mxCell>
        <mxCell id="T7A3vPWm0_8X9iySJhkO-48" value="Course browsing" style="rounded=1;whiteSpace=wrap;html=1;" vertex="1" parent="T7A3vPWm0_8X9iySJhkO-46">
          <mxGeometry x="30" y="30" width="160" height="30" as="geometry" />
        </mxCell>
        <mxCell id="T7A3vPWm0_8X9iySJhkO-49" style="edgeStyle=orthogonalEdgeStyle;rounded=0;orthogonalLoop=1;jettySize=auto;html=1;exitX=0.5;exitY=1;exitDx=0;exitDy=0;entryX=0.5;entryY=0;entryDx=0;entryDy=0;" edge="1" parent="T7A3vPWm0_8X9iySJhkO-46" source="T7A3vPWm0_8X9iySJhkO-51">
          <mxGeometry relative="1" as="geometry">
            <mxPoint x="110" y="118" as="targetPoint" />
          </mxGeometry>
        </mxCell>
        <mxCell id="T7A3vPWm0_8X9iySJhkO-50" style="edgeStyle=orthogonalEdgeStyle;rounded=0;orthogonalLoop=1;jettySize=auto;html=1;exitX=0.5;exitY=1;exitDx=0;exitDy=0;entryX=0.5;entryY=0;entryDx=0;entryDy=0;" edge="1" parent="T7A3vPWm0_8X9iySJhkO-46" source="T7A3vPWm0_8X9iySJhkO-51" target="T7A3vPWm0_8X9iySJhkO-52">
          <mxGeometry relative="1" as="geometry" />
        </mxCell>
        <mxCell id="T7A3vPWm0_8X9iySJhkO-51" value="Course recommendation" style="rounded=1;whiteSpace=wrap;html=1;" vertex="1" parent="T7A3vPWm0_8X9iySJhkO-46">
          <mxGeometry x="30" y="74" width="160" height="66" as="geometry" />
        </mxCell>
        <mxCell id="T7A3vPWm0_8X9iySJhkO-52" value="Progress tracking for learners" style="rounded=1;whiteSpace=wrap;html=1;" vertex="1" parent="T7A3vPWm0_8X9iySJhkO-46">
          <mxGeometry x="30" y="160" width="160" height="30" as="geometry" />
        </mxCell>
        <mxCell id="T7A3vPWm0_8X9iySJhkO-53" style="edgeStyle=orthogonalEdgeStyle;rounded=0;orthogonalLoop=1;jettySize=auto;html=1;exitX=0.5;exitY=1;exitDx=0;exitDy=0;" edge="1" parent="1" source="T7A3vPWm0_8X9iySJhkO-54">
          <mxGeometry relative="1" as="geometry">
            <mxPoint x="1585" y="610" as="targetPoint" />
          </mxGeometry>
        </mxCell>
        <mxCell id="T7A3vPWm0_8X9iySJhkO-54" value="Trainer Module" style="swimlane;whiteSpace=wrap;html=1;" vertex="1" parent="1">
          <mxGeometry x="1470" y="330" width="230" height="200" as="geometry" />
        </mxCell>
        <mxCell id="T7A3vPWm0_8X9iySJhkO-55" style="edgeStyle=orthogonalEdgeStyle;rounded=0;orthogonalLoop=1;jettySize=auto;html=1;exitX=0.5;exitY=1;exitDx=0;exitDy=0;entryX=0.5;entryY=0;entryDx=0;entryDy=0;" edge="1" parent="T7A3vPWm0_8X9iySJhkO-54" source="T7A3vPWm0_8X9iySJhkO-56" target="T7A3vPWm0_8X9iySJhkO-59">
          <mxGeometry relative="1" as="geometry" />
        </mxCell>
        <mxCell id="T7A3vPWm0_8X9iySJhkO-56" value="Course creation" style="rounded=1;whiteSpace=wrap;html=1;" vertex="1" parent="T7A3vPWm0_8X9iySJhkO-54">
          <mxGeometry x="30" y="30" width="160" height="30" as="geometry" />
        </mxCell>
        <mxCell id="T7A3vPWm0_8X9iySJhkO-57" style="edgeStyle=orthogonalEdgeStyle;rounded=0;orthogonalLoop=1;jettySize=auto;html=1;exitX=0.5;exitY=1;exitDx=0;exitDy=0;entryX=0.5;entryY=0;entryDx=0;entryDy=0;" edge="1" parent="T7A3vPWm0_8X9iySJhkO-54" source="T7A3vPWm0_8X9iySJhkO-59">
          <mxGeometry relative="1" as="geometry">
            <mxPoint x="110" y="118" as="targetPoint" />
          </mxGeometry>
        </mxCell>
        <mxCell id="T7A3vPWm0_8X9iySJhkO-58" style="edgeStyle=orthogonalEdgeStyle;rounded=0;orthogonalLoop=1;jettySize=auto;html=1;exitX=0.5;exitY=1;exitDx=0;exitDy=0;entryX=0.5;entryY=0;entryDx=0;entryDy=0;" edge="1" parent="T7A3vPWm0_8X9iySJhkO-54" source="T7A3vPWm0_8X9iySJhkO-59" target="T7A3vPWm0_8X9iySJhkO-60">
          <mxGeometry relative="1" as="geometry" />
        </mxCell>
        <mxCell id="T7A3vPWm0_8X9iySJhkO-59" value="Course management" style="rounded=1;whiteSpace=wrap;html=1;" vertex="1" parent="T7A3vPWm0_8X9iySJhkO-54">
          <mxGeometry x="30" y="74" width="160" height="66" as="geometry" />
        </mxCell>
        <mxCell id="T7A3vPWm0_8X9iySJhkO-60" value="Trainer profile" style="rounded=1;whiteSpace=wrap;html=1;" vertex="1" parent="T7A3vPWm0_8X9iySJhkO-54">
          <mxGeometry x="30" y="160" width="160" height="30" as="geometry" />
        </mxCell>
        <mxCell id="T7A3vPWm0_8X9iySJhkO-61" style="edgeStyle=orthogonalEdgeStyle;rounded=0;orthogonalLoop=1;jettySize=auto;html=1;exitX=0.5;exitY=1;exitDx=0;exitDy=0;" edge="1" parent="1" source="T7A3vPWm0_8X9iySJhkO-62">
          <mxGeometry relative="1" as="geometry">
            <mxPoint x="605.5294117647059" y="289.9999999999999" as="targetPoint" />
          </mxGeometry>
        </mxCell>
        <mxCell id="T7A3vPWm0_8X9iySJhkO-62" value="Security" style="swimlane;whiteSpace=wrap;html=1;" vertex="1" parent="1">
          <mxGeometry x="490" y="20" width="230" height="200" as="geometry" />
        </mxCell>
        <mxCell id="T7A3vPWm0_8X9iySJhkO-63" style="edgeStyle=orthogonalEdgeStyle;rounded=0;orthogonalLoop=1;jettySize=auto;html=1;exitX=0.5;exitY=1;exitDx=0;exitDy=0;entryX=0.5;entryY=0;entryDx=0;entryDy=0;" edge="1" parent="T7A3vPWm0_8X9iySJhkO-62" source="T7A3vPWm0_8X9iySJhkO-64" target="T7A3vPWm0_8X9iySJhkO-66">
          <mxGeometry relative="1" as="geometry" />
        </mxCell>
        <mxCell id="T7A3vPWm0_8X9iySJhkO-64" value="Encryption (SSL)" style="rounded=1;whiteSpace=wrap;html=1;" vertex="1" parent="T7A3vPWm0_8X9iySJhkO-62">
          <mxGeometry x="30" y="30" width="160" height="30" as="geometry" />
        </mxCell>
        <mxCell id="T7A3vPWm0_8X9iySJhkO-65" style="edgeStyle=orthogonalEdgeStyle;rounded=0;orthogonalLoop=1;jettySize=auto;html=1;exitX=0.5;exitY=1;exitDx=0;exitDy=0;entryX=0.5;entryY=0;entryDx=0;entryDy=0;" edge="1" parent="T7A3vPWm0_8X9iySJhkO-62" source="T7A3vPWm0_8X9iySJhkO-66" target="T7A3vPWm0_8X9iySJhkO-68">
          <mxGeometry relative="1" as="geometry" />
        </mxCell>
        <mxCell id="T7A3vPWm0_8X9iySJhkO-66" value="Two-factor authentication" style="rounded=1;whiteSpace=wrap;html=1;" vertex="1" parent="T7A3vPWm0_8X9iySJhkO-62">
          <mxGeometry x="30" y="74" width="160" height="30" as="geometry" />
        </mxCell>
        <mxCell id="T7A3vPWm0_8X9iySJhkO-67" style="edgeStyle=orthogonalEdgeStyle;rounded=0;orthogonalLoop=1;jettySize=auto;html=1;exitX=0.5;exitY=1;exitDx=0;exitDy=0;entryX=0.5;entryY=0;entryDx=0;entryDy=0;" edge="1" parent="T7A3vPWm0_8X9iySJhkO-62" source="T7A3vPWm0_8X9iySJhkO-68" target="T7A3vPWm0_8X9iySJhkO-69">
          <mxGeometry relative="1" as="geometry" />
        </mxCell>
        <mxCell id="T7A3vPWm0_8X9iySJhkO-68" value="Role-based access control" style="rounded=1;whiteSpace=wrap;html=1;" vertex="1" parent="T7A3vPWm0_8X9iySJhkO-62">
          <mxGeometry x="30" y="118" width="160" height="30" as="geometry" />
        </mxCell>
        <mxCell id="T7A3vPWm0_8X9iySJhkO-69" value="Regular security audits" style="rounded=1;whiteSpace=wrap;html=1;" vertex="1" parent="T7A3vPWm0_8X9iySJhkO-62">
          <mxGeometry x="30" y="160" width="160" height="30" as="geometry" />
        </mxCell>
        <mxCell id="T7A3vPWm0_8X9iySJhkO-70" value="" style="endArrow=none;html=1;rounded=0;" edge="1" parent="1">
          <mxGeometry width="50" height="50" relative="1" as="geometry">
            <mxPoint x="10" y="290" as="sourcePoint" />
            <mxPoint x="1590" y="290" as="targetPoint" />
          </mxGeometry>
        </mxCell>
        <mxCell id="T7A3vPWm0_8X9iySJhkO-71" value="" style="endArrow=classic;html=1;rounded=0;entryX=0.5;entryY=0;entryDx=0;entryDy=0;" edge="1" parent="1" target="T7A3vPWm0_8X9iySJhkO-54">
          <mxGeometry width="50" height="50" relative="1" as="geometry">
            <mxPoint x="1585" y="290" as="sourcePoint" />
            <mxPoint x="1040" y="460" as="targetPoint" />
          </mxGeometry>
        </mxCell>
        <mxCell id="T7A3vPWm0_8X9iySJhkO-72" value="" style="endArrow=classic;html=1;rounded=0;entryX=0.5;entryY=0;entryDx=0;entryDy=0;" edge="1" parent="1">
          <mxGeometry width="50" height="50" relative="1" as="geometry">
            <mxPoint x="1314.41" y="290" as="sourcePoint" />
            <mxPoint x="1314.41" y="330" as="targetPoint" />
          </mxGeometry>
        </mxCell>
        <mxCell id="T7A3vPWm0_8X9iySJhkO-73" value="" style="endArrow=classic;html=1;rounded=0;entryX=0.5;entryY=0;entryDx=0;entryDy=0;" edge="1" parent="1">
          <mxGeometry width="50" height="50" relative="1" as="geometry">
            <mxPoint x="1060" y="290" as="sourcePoint" />
            <mxPoint x="1060" y="330" as="targetPoint" />
          </mxGeometry>
        </mxCell>
        <mxCell id="T7A3vPWm0_8X9iySJhkO-74" value="" style="endArrow=classic;html=1;rounded=0;entryX=0.5;entryY=0;entryDx=0;entryDy=0;" edge="1" parent="1">
          <mxGeometry width="50" height="50" relative="1" as="geometry">
            <mxPoint x="774.4100000000001" y="290" as="sourcePoint" />
            <mxPoint x="774.4100000000001" y="330" as="targetPoint" />
          </mxGeometry>
        </mxCell>
        <mxCell id="T7A3vPWm0_8X9iySJhkO-75" value="" style="endArrow=classic;html=1;rounded=0;entryX=0.5;entryY=0;entryDx=0;entryDy=0;" edge="1" parent="1">
          <mxGeometry width="50" height="50" relative="1" as="geometry">
            <mxPoint x="500.00000000000006" y="290" as="sourcePoint" />
            <mxPoint x="500.00000000000006" y="330" as="targetPoint" />
          </mxGeometry>
        </mxCell>
        <mxCell id="T7A3vPWm0_8X9iySJhkO-76" value="" style="endArrow=classic;html=1;rounded=0;entryX=0.5;entryY=0;entryDx=0;entryDy=0;" edge="1" parent="1">
          <mxGeometry width="50" height="50" relative="1" as="geometry">
            <mxPoint x="200.00000000000006" y="290" as="sourcePoint" />
            <mxPoint x="200.00000000000006" y="330" as="targetPoint" />
          </mxGeometry>
        </mxCell>
        <mxCell id="T7A3vPWm0_8X9iySJhkO-77" value="" style="endArrow=none;html=1;rounded=0;" edge="1" parent="1">
          <mxGeometry width="50" height="50" relative="1" as="geometry">
            <mxPoint x="90" y="610" as="sourcePoint" />
            <mxPoint x="1710" y="610" as="targetPoint" />
          </mxGeometry>
        </mxCell>
        <mxCell id="T7A3vPWm0_8X9iySJhkO-78" value="Notifiaction" style="rounded=1;whiteSpace=wrap;html=1;" vertex="1" parent="1">
          <mxGeometry x="750" y="670" width="120" height="60" as="geometry" />
        </mxCell>
        <mxCell id="T7A3vPWm0_8X9iySJhkO-79" value="" style="endArrow=classic;html=1;rounded=0;entryX=0.5;entryY=0;entryDx=0;entryDy=0;" edge="1" parent="1" target="T7A3vPWm0_8X9iySJhkO-78">
          <mxGeometry width="50" height="50" relative="1" as="geometry">
            <mxPoint x="810" y="610" as="sourcePoint" />
            <mxPoint x="830" y="480" as="targetPoint" />
          </mxGeometry>
        </mxCell>
      </root>
    </mxGraphModel>
  </diagram>
</mxfile>
